<?xml version="1.0" encoding="UTF-8" standalone="no"?>
<!-- Created with Inkscape (http://www.inkscape.org/) -->

<svg
   width="235mm"
   height="100mm"
   viewBox="0 0 235 100"
   version="1.1"
   id="svg1"
   sodipodi:docname="LOGO-FULL.svg"
   inkscape:version="1.4.2 (f4327f4, 2025-05-13)"
   xmlns:inkscape="http://www.inkscape.org/namespaces/inkscape"
   xmlns:sodipodi="http://sodipodi.sourceforge.net/DTD/sodipodi-0.dtd"
   xmlns:xlink="http://www.w3.org/1999/xlink"
   xmlns="http://www.w3.org/2000/svg"
   xmlns:svg="http://www.w3.org/2000/svg">
  <sodipodi:namedview
     id="namedview1"
     pagecolor="#ffffff"
     bordercolor="#000000"
     borderopacity="0.25"
     inkscape:showpageshadow="2"
     inkscape:pageopacity="0.0"
     inkscape:pagecheckerboard="0"
     inkscape:deskcolor="#d1d1d1"
     inkscape:document-units="mm"
     showgrid="false"
     inkscape:window-width="1920"
     inkscape:window-height="1171"
     inkscape:window-x="2391"
     inkscape:window-y="647"
     inkscape:window-maximized="1"
     inkscape:current-layer="layer1"
     showguides="true" />
  <defs
     id="defs1">
    <linearGradient
       id="linearGradient56">
      <stop
         style="stop-color:#eabebb;stop-opacity:1;"
         offset="0"
         id="stop55" />
      <stop
         style="stop-color:#f4deba;stop-opacity:1;"
         offset="1"
         id="stop56" />
    </linearGradient>
    <linearGradient
       id="linearGradient48">
      <stop
         style="stop-color:#efd8c9;stop-opacity:1;"
         offset="0"
         id="stop47" />
      <stop
         style="stop-color:#a9ddd7;stop-opacity:1;"
         offset="1"
         id="stop48" />
    </linearGradient>
    <linearGradient
       id="linearGradient25">
      <stop
         style="stop-color:#dc938e;stop-opacity:1;"
         offset="0"
         id="stop24" />
      <stop
         style="stop-color:#eac07d;stop-opacity:1;"
         offset="1"
         id="stop25" />
    </linearGradient>
    <inkscape:path-effect
       effect="fillet_chamfer"
       id="path-effect20"
       is_visible="true"
       lpeversion="1"
       nodesatellites_param="F,0,0,1,0,0,0,1 @ F,0,0,1,0,0,0,1 @ F,0,0,1,0,0,0,1 @ F,0,0,1,0,0,0,1 @ F,0,0,1,0,0,0,1 @ F,0,0,1,0,0,0,1 @ F,0,0,1,0,0,0,1 @ F,0,0,1,0,0,0,1 | F,0,0,1,0,0,0,1 @ F,0,0,1,0,0,0,1 @ F,0,0,1,0,0,0,1 @ F,0,0,1,0,0,0,1 @ F,0,1,1,0,1.348189,0,1 @ F,0,1,1,0,1.348189,0,1 @ F,0,1,1,0,1.348189,0,1 @ F,0,0,1,0,0,0,1 @ F,0,0,1,0,0,0,1 @ F,0,0,1,0,0,0,1 @ F,0,0,1,0,1.6178268,0,1 @ F,0,0,1,0,2.6963781,0,1 @ F,0,0,1,0,0,0,1 @ F,0,0,1,0,0,0,1 @ F,0,0,1,0,0,0,1 @ F,0,0,1,0,0,0,1 @ F,0,0,1,0,0,0,1 | F,0,0,1,0,1.3229166,0,1 @ F,0,0,1,0,2.9660159,0,1 @ F,0,0,1,0,0,0,1 @ F,0,0,1,0,0,0,1 @ F,0,0,1,0,1.3229166,0,1"
       radius="6"
       unit="px"
       method="auto"
       mode="F"
       chamfer_steps="1"
       flexible="false"
       use_knot_distance="true"
       apply_no_radius="true"
       apply_with_radius="true"
       only_selected="true"
       hide_knots="false" />
    <linearGradient
       id="linearGradient20">
      <stop
         style="stop-color:#dcab8e;stop-opacity:0.71465969;"
         offset="0"
         id="stop19" />
      <stop
         style="stop-color:#7e66c3;stop-opacity:1;"
         offset="1"
         id="stop20" />
    </linearGradient>
    <inkscape:path-effect
       effect="fillet_chamfer"
       id="path-effect15"
       is_visible="true"
       lpeversion="1"
       nodesatellites_param="F,0,0,1,0,0,0,1 @ F,0,0,1,0,0,0,1 @ F,0,0,1,0,0,0,1 @ F,0,0,1,0,0,0,1 @ F,0,0,1,0,0,0,1 @ F,0,0,1,0,0,0,1 @ F,0,0,1,0,0,0,1 @ F,0,0,1,0,0,0,1 | F,0,0,1,0,0,0,1 @ F,0,0,1,0,2.6458333,0,1 @ F,0,0,1,0,0,0,1 @ F,0,0,1,0,0,0,1 @ F,0,0,1,0,1.3229166,0,1 @ F,0,0,1,0,1.3229166,0,1 @ F,0,0,1,0,1.3229166,0,1 @ F,0,0,1,0,0,0,1 @ F,0,0,1,0,2.1166666,0,1 @ F,0,0,1,0,0,0,1 @ F,0,0,1,0,0,0,1 @ F,0,0,1,0,0,0,1 @ F,0,0,1,0,0,0,1 @ F,0,1,1,0,0,0,1"
       radius="6"
       unit="px"
       method="auto"
       mode="F"
       chamfer_steps="1"
       flexible="false"
       use_knot_distance="true"
       apply_no_radius="true"
       apply_with_radius="true"
       only_selected="true"
       hide_knots="false" />
    <inkscape:path-effect
       effect="fillet_chamfer"
       id="path-effect13"
       is_visible="true"
       lpeversion="1"
       nodesatellites_param="F,0,0,1,0,0,0,1 @ F,0,0,1,0,0,0,1 @ F,0,0,1,0,0,0,1 @ F,0,0,1,0,0,0,1 @ F,0,0,1,0,0,0,1 @ F,0,0,1,0,0,0,1 @ F,0,0,1,0,0,0,1 @ F,0,0,1,0,0,0,1 | F,0,0,1,0,0,0,1 @ F,0,0,1,0,0,0,1 @ F,0,0,1,0,0,0,1 @ F,0,0,1,0,0,0,1 @ F,0,0,1,0,0,0,1 @ F,0,0,1,0,0,0,1 @ F,0,1,1,0,1.5875,0,1 @ F,0,0,1,0,6.6145832,0,1 @ F,0,0,1,0,5.5562499,0,1 @ F,0,0,1,0,0,0,1 @ F,0,0,1,0,2.6458333,0,1"
       radius="6"
       unit="px"
       method="auto"
       mode="F"
       chamfer_steps="1"
       flexible="false"
       use_knot_distance="true"
       apply_no_radius="true"
       apply_with_radius="true"
       only_selected="true"
       hide_knots="false" />
    <inkscape:path-effect
       effect="fillet_chamfer"
       id="path-effect12"
       is_visible="true"
       lpeversion="1"
       nodesatellites_param="F,0,1,1,0,2.1166666,0,1 @ F,0,1,1,0,2.1166666,0,1 @ F,0,0,1,0,0,0,1 @ F,0,0,1,0,0,0,1 @ F,0,1,1,0,2.1166666,0,1"
       radius="8"
       unit="px"
       method="auto"
       mode="F"
       chamfer_steps="1"
       flexible="false"
       use_knot_distance="true"
       apply_no_radius="true"
       apply_with_radius="true"
       only_selected="true"
       hide_knots="false" />
    <inkscape:path-effect
       effect="offset"
       id="path-effect11"
       is_visible="true"
       lpeversion="1.3"
       linejoin_type="miter"
       unit="mm"
       offset="-6.1"
       miter_limit="4"
       attempt_force_join="false"
       update_on_knot_move="true" />
    <inkscape:path-effect
       effect="fillet_chamfer"
       id="path-effect10"
       is_visible="true"
       lpeversion="1"
       nodesatellites_param="F,0,0,1,0,3.7041666,0,1 @ F,0,0,1,0,3.7041666,0,1 @ F,0,1,1,0,13.758333,0,1 @ F,0,0,1,0,3.7041666,0,1"
       radius="52"
       unit="px"
       method="auto"
       mode="F"
       chamfer_steps="1"
       flexible="false"
       use_knot_distance="true"
       apply_no_radius="true"
       apply_with_radius="true"
       only_selected="true"
       hide_knots="false" />
    <inkscape:path-effect
       effect="fillet_chamfer"
       id="path-effect5"
       is_visible="true"
       lpeversion="1"
       nodesatellites_param="F,0,0,1,0,3.7041666,0,1 @ F,0,0,1,0,3.7041666,0,1 @ F,0,1,1,0,13.758333,0,1 @ F,0,0,1,0,3.7041666,0,1"
       radius="52"
       unit="px"
       method="auto"
       mode="F"
       chamfer_steps="1"
       flexible="false"
       use_knot_distance="true"
       apply_no_radius="true"
       apply_with_radius="true"
       only_selected="true"
       hide_knots="false" />
    <inkscape:path-effect
       effect="fillet_chamfer"
       id="path-effect4"
       is_visible="true"
       lpeversion="1"
       nodesatellites_param="F,0,0,1,0,1.0583333,0,1 @ F,0,0,1,0,1.0583333,0,1 @ F,0,0,1,0,1.0583333,0,1 @ F,0,0,1,0,1.0583333,0,1 @ F,0,0,1,0,1.0583333,0,1 @ F,0,0,1,0,1.0583333,0,1 @ F,0,0,1,0,1.0583333,0,1 @ F,0,0,1,0,1.0583333,0,1 | F,0,0,1,0,1.0583333,0,1 @ F,0,0,1,0,1.0583333,0,1 @ F,0,0,1,0,1.0583333,0,1 @ F,0,0,1,0,1.0583333,0,1 @ F,0,0,1,0,1.0583333,0,1 @ F,0,0,1,0,1.0583333,0,1 @ F,0,0,1,0,1.0583333,0,1 @ F,0,0,1,0,1.0583333,0,1 @ F,0,0,1,0,1.0583333,0,1 @ F,0,0,1,0,1.0583333,0,1 @ F,0,0,1,0,1.0583333,0,1 @ F,0,0,1,0,1.0583333,0,1 @ F,0,0,1,0,1.0583333,0,1 @ F,0,0,1,0,1.0583333,0,1 @ F,0,0,1,0,1.0583333,0,1 @ F,0,0,1,0,1.0583333,0,1 @ F,0,0,1,0,1.0583333,0,1 @ F,0,0,1,0,1.0583333,0,1 @ F,0,0,1,0,1.0583333,0,1 @ F,0,0,1,0,1.0583333,0,1 @ F,0,0,1,0,1.0583333,0,1 @ F,0,0,1,0,1.0583333,0,1 @ F,0,1,1,0,2.6458333,0,1 @ F,0,1,1,0,2.6458333,0,1 @ F,0,0,1,0,1.0583333,0,1 @ F,0,0,1,0,1.0583333,0,1 @ F,0,0,1,0,1.0583333,0,1"
       radius="10"
       unit="px"
       method="auto"
       mode="F"
       chamfer_steps="1"
       flexible="false"
       use_knot_distance="true"
       apply_no_radius="true"
       apply_with_radius="true"
       only_selected="true"
       hide_knots="false" />
    <inkscape:path-effect
       effect="fillet_chamfer"
       id="path-effect3"
       is_visible="true"
       lpeversion="1"
       nodesatellites_param="F,0,0,1,0,0,0,1 @ F,0,0,1,0,0,0,1 @ F,0,0,1,0,0,0,1 @ F,0,0,1,0,0,0,1 @ F,0,0,1,0,0,0,1 @ F,0,0,1,0,0,0,1 @ F,0,0,1,0,0,0,1 @ F,0,0,1,0,0,0,1 | F,0,0,1,0,0,0,1 @ F,0,0,1,0,0,0,1 @ F,0,0,1,0,2.6458333,0,1 @ F,0,0,1,0,0,0,1 @ F,0,0,1,0,0,0,1 @ F,0,0,1,0,0,0,1 @ F,0,0,1,0,0,0,1 @ F,0,0,1,0,0,0,1 @ F,0,0,1,0,0,0,1 @ F,0,0,1,0,0,0,1 @ F,0,0,1,0,0,0,1 @ F,0,0,1,0,1.3703999,0,1 @ F,0,1,1,0,1.3703999,0,1 @ F,0,0,1,0,0,0,1 @ F,0,0,1,0,0,0,1 @ F,0,0,1,0,0,0,1 @ F,0,0,1,0,0,0,1 @ F,0,0,1,0,0,0,1 @ F,0,0,1,0,0,0,1 | F,0,0,1,0,0,0,1 @ F,0,0,1,0,0,0,1 @ F,0,0,1,0,0,0,1 @ F,0,0,1,0,0,0,1"
       radius="6"
       unit="px"
       method="auto"
       mode="F"
       chamfer_steps="1"
       flexible="false"
       use_knot_distance="true"
       apply_no_radius="true"
       apply_with_radius="true"
       only_selected="true"
       hide_knots="false" />
    <linearGradient
       id="linearGradient12">
      <stop
         style="stop-color:#dcab8e;stop-opacity:1;"
         offset="0"
         id="stop13" />
      <stop
         style="stop-color:#7e66c3;stop-opacity:1;"
         offset="1"
         id="stop14" />
    </linearGradient>
    <linearGradient
       xlink:href="#linearGradient25"
       id="linearGradient14"
       x1="40.174351"
       y1="26.998978"
       x2="110.07668"
       y2="26.998978"
       gradientUnits="userSpaceOnUse" />
    <linearGradient
       inkscape:collect="always"
       xlink:href="#linearGradient56"
       id="linearGradient47"
       x1="43.688057"
       y1="79.097206"
       x2="164.90907"
       y2="79.097206"
       gradientUnits="userSpaceOnUse" />
    <linearGradient
       inkscape:collect="always"
       xlink:href="#linearGradient25"
       id="linearGradient1"
       gradientUnits="userSpaceOnUse"
       x1="40.174351"
       y1="26.998978"
       x2="110.07668"
       y2="26.998978" />
  </defs>
  <g
     id="layer1">
    <g
       id="g1"
       transform="matrix(1.8192417,0,0,1.8188772,-73.521094,-54.13987)">
      <path
         id="path14"
         style="font-size:11.2471px;font-family:'Dune Rise';-inkscape-font-specification:'Dune Rise, Normal';display:inline;opacity:1;fill:url(#linearGradient47);fill-opacity:1;stroke:none;stroke-width:0.0319258;stroke-linecap:round;stroke-linejoin:round;stroke-opacity:1;paint-order:stroke fill markers"
         d="m 141.0971,74.824373 c -0.0954,-2.21e-4 -0.19793,0.01181 -0.30799,0.03721 -0.69152,0.275396 -0.81345,1.140411 -1.23145,1.696021 -0.75753,1.348525 -1.51518,2.696708 -2.27273,4.045231 -1.03254,-1.834791 -2.06492,-3.669265 -3.09749,-5.504057 -0.32845,-0.248701 -1.06382,-0.443742 -1.28054,-0.01964 -0.0881,0.149044 -0.1759,0.297955 -0.26406,0.447001 v 5.17e-4 c 1.41803,2.526263 2.83596,5.052082 4.254,7.578349 0.58606,0.127469 0.97797,-0.0761 1.14773,-0.660425 1.29692,-2.306025 2.5938,-4.6119 3.89072,-6.917924 -0.14874,-0.461737 -0.42498,-0.701324 -0.83819,-0.702283 z m -87.024662,0.01085 c -0.179446,-0.006 -0.354945,0.05416 -0.490926,0.205156 l -0.267168,0.267167 v 7.578866 c 0.256269,0.432399 0.902289,0.667532 1.267623,0.267167 0.509064,-0.36435 0.168532,-1.080367 0.266134,-1.614889 -0.0022,-2.07705 -0.0046,-4.154091 -0.0067,-6.231144 -0.159104,-0.267761 -0.46987,-0.462257 -0.768945,-0.472323 z m 19.581233,0 c -0.179445,-0.006 -0.354945,0.05416 -0.490926,0.205156 l -0.267167,0.267167 v 7.578866 c 0.256268,0.432399 0.902289,0.667532 1.267623,0.267167 0.509062,-0.36435 0.168014,-1.080367 0.265617,-1.614889 -0.0022,-2.07705 -0.0046,-4.154091 -0.0067,-6.231144 -0.159104,-0.267761 -0.469353,-0.462257 -0.768429,-0.472323 z m 19.580201,0 c -0.179214,-0.0062 -0.354634,0.05399 -0.49041,0.205156 l -0.26665,0.267167 v 7.578866 c 0.256269,0.432399 0.902288,0.667532 1.267623,0.267167 0.509094,-0.36435 0.168107,-1.080367 0.265617,-1.614889 -0.0025,-2.07705 -0.0054,-4.154091 -0.0088,-6.231144 -0.158895,-0.26726 -0.468706,-0.46207 -0.767395,-0.472323 z m 33.780368,0 c -0.17945,-0.006 -0.35442,0.05416 -0.49041,0.205156 -0.089,0.08905 -0.17813,0.178119 -0.26717,0.267167 v 7.578866 c 0.25661,0.433182 0.9033,0.667076 1.26918,0.267167 0.50909,-0.36435 0.16811,-1.080367 0.26561,-1.614889 -0.003,-2.07705 -0.006,-4.154091 -0.008,-6.231144 -0.1591,-0.267761 -0.46986,-0.462257 -0.76894,-0.472323 z m -40.24354,0.0062 c -0.291335,0.0091 -0.604006,0.06919 -0.871264,0.02015 h -6.231145 l -0.445967,0.445968 c -0.119151,0.483586 0.149798,1.119228 0.698665,1.089339 h 2.76934 v 6.489527 c 0.254567,0.428423 0.896739,0.669815 1.259355,0.267167 0.508907,-0.36435 0.169091,-1.080367 0.267167,-1.614889 V 76.39688 h 3.030306 c 0.432392,-0.25627 0.667532,-0.902806 0.267167,-1.268139 C 87.332152,74.874288 87.062035,74.832332 86.7707,74.84142 Z m 33.7814,0 c -0.29133,0.0091 -0.60401,0.06919 -0.87126,0.02015 h -6.23115 c -0.1486,0.148604 -0.29736,0.297362 -0.44597,0.445968 -0.11915,0.483586 0.1498,1.119228 0.69867,1.089339 h 2.76934 v 6.489527 c 0.25457,0.428423 0.89672,0.669815 1.25935,0.267167 0.5089,-0.36435 0.16911,-1.080367 0.26717,-1.614889 V 76.39688 h 3.03031 c 0.43238,-0.25627 0.66752,-0.902806 0.26716,-1.268139 -0.18217,-0.254453 -0.45228,-0.296409 -0.74362,-0.287321 z m 33.7814,0 c -0.29134,0.0091 -0.60401,0.06919 -0.87126,0.02015 -0.9505,0.01096 -1.90292,-0.02292 -2.85254,0.02015 -2.27199,0.169597 -4.09898,2.40961 -3.79977,4.669999 0.18747,2.187002 2.28073,3.942305 4.46381,3.780648 h 3.53622 c 0.42841,-0.254568 0.66983,-0.897248 0.26717,-1.259871 -0.36433,-0.5089 -1.08038,-0.169093 -1.61489,-0.267167 -1.18418,-0.08575 -2.44113,0.213531 -3.56826,-0.248564 -1.60612,-0.660618 -2.10874,-2.966325 -0.91364,-4.229199 0.73601,-0.925545 1.98732,-0.999858 3.07475,-0.930693 h 2.75487 c 0.43238,-0.25627 0.66754,-0.902806 0.26717,-1.268139 -0.18217,-0.254453 -0.45229,-0.296409 -0.74363,-0.287321 z m -90.299913,0.02222 c -0.188703,-0.0075 -0.378417,-0.0015 -0.567407,0.01809 -2.20194,0.16832 -3.986365,2.269161 -3.823023,4.466911 v 3.537769 c 0.254226,0.427614 0.895734,0.670278 1.257804,0.267167 0.508907,-0.36435 0.169091,-1.080367 0.267168,-1.614889 0.0857,-1.180692 -0.212765,-2.433662 0.245463,-3.557922 0.663422,-1.605219 2.966539,-2.113692 4.232299,-0.915707 0.926405,0.730101 1.000288,1.981151 0.93121,3.06493 v 2.756421 c 0.25627,0.432399 0.90229,0.667532 1.267623,0.267167 0.508907,-0.36435 0.169091,-1.080367 0.267167,-1.614889 -0.05956,-1.617786 0.290946,-3.420213 -0.736906,-4.822961 -0.741908,-1.102398 -2.020478,-1.799904 -3.341398,-1.852084 z m 39.559343,0.188619 c -0.4163,-0.0012 -0.70123,0.222423 -0.83923,0.697116 -1.29745,2.306046 -2.59483,4.612393 -3.892265,6.91844 0.183066,0.568289 0.559201,0.799996 1.146185,0.664559 0.6835,-0.286667 0.80787,-1.139782 1.22421,-1.695504 0.75724,-1.345959 1.51448,-2.691523 2.2717,-4.037479 1.03255,1.835338 2.06547,3.670265 3.098,5.505607 0.33362,0.252571 1.07273,0.43201 1.29191,0.0088 0.50335,-0.437576 -0.0314,-0.88386 -0.23358,-1.327568 -1.25264,-2.232447 -2.50528,-4.464817 -3.75791,-6.697265 -0.10988,-0.0239 -0.21295,-0.03641 -0.30902,-0.03669 z m -55.66172,1.468645 a 0.17556086,0.17556086 0 0 0 -0.07235,0.01395 l -3.926892,1.65623 a 0.39874683,0.39874683 0 0 0 -0.243912,0.367419 v 1.062468 a 0.39999767,0.39999767 0 0 0 0.243396,0.367936 l 3.927925,1.670182 a 0.17501187,0.17501187 0 0 0 0.243396,-0.16123 V 80.420408 A 0.39814066,0.39814066 0 0 0 47.85886,80.053506 l -2.050004,-0.861447 a 0.1111563,0.1111563 0 0 1 0,-0.204638 l 2.050004,-0.861446 a 0.3981408,0.3981408 0 0 0 0.243913,-0.366903 v -1.062467 a 0.17556086,0.17556086 0 0 0 -0.171566,-0.1757 z m 112.73472,0 a 0.17556086,0.17556086 0 0 0 -0.17156,0.1757 v 1.062467 a 0.3981408,0.3981408 0 0 0 0.24391,0.366903 l 2.04949,0.861446 a 0.1111563,0.1111563 0 0 1 0,0.204638 l -2.04949,0.861447 a 0.39814066,0.39814066 0 0 0 -0.24391,0.366902 v 1.077454 a 0.17501187,0.17501187 0 0 0 0.24339,0.16123 l 3.92741,-1.670182 a 0.39999767,0.39999767 0 0 0 0.24391,-0.367936 v -1.062468 a 0.39874683,0.39874683 0 0 0 -0.24391,-0.367419 l -3.92689,-1.65623 a 0.17556086,0.17556086 0 0 0 -0.0724,-0.01395 z m -8.70489,1.657263 c -0.0226,-2.94e-4 -0.0451,7e-6 -0.0677,0.0015 -0.86817,-0.0016 -1.2,1.287589 -0.43615,1.702739 0.72556,0.519597 1.75513,-0.413737 1.31413,-1.187525 -0.14875,-0.304813 -0.47185,-0.512357 -0.81028,-0.516764 z"
         transform="translate(0.70148)" />
      <path
         id="path29"
         style="font-size:29.6725px;font-family:Elltaneixy;-inkscape-font-specification:'Elltaneixy, Normal';display:inline;fill:url(#linearGradient1);fill-opacity:1;stroke:none;stroke-width:0.1;stroke-linecap:round;stroke-linejoin:round;paint-order:stroke fill markers"
         d="m 79.399635,21.399166 c -0.587848,-7.6e-5 -1.064414,0.519923 -1.06436,1.161361 9.4e-5,0.641324 0.476617,1.161143 1.06436,1.161067 0.587628,-1.01e-4 1.063972,-0.519869 1.064066,-1.161067 5.4e-5,-0.641313 -0.476333,-1.16126 -1.064066,-1.161361 z m -23.916507,3.703656 c -0.587628,1.01e-4 -1.063972,0.519869 -1.064066,1.161067 -5.4e-5,0.641313 0.476333,1.16126 1.064066,1.161361 0.587848,7.7e-5 1.064415,-0.519922 1.064361,-1.161361 -9.4e-5,-0.641324 -0.476618,-1.161144 -1.064361,-1.161067 z m 34.951345,9.80058 c -0.587733,1.01e-4 -1.064122,0.520047 -1.064067,1.161361 9.4e-5,0.641198 0.476439,1.160965 1.064067,1.161066 0.587742,7.6e-5 1.064265,-0.519743 1.06436,-1.161066 5.4e-5,-0.641439 -0.476513,-1.161438 -1.06436,-1.161361 z"
         transform="matrix(1.7580548,0,0,1.7580548,-27.07433,2.534265)" />
      <path
         id="path26"
         style="font-size:29.6725px;font-family:Elltaneixy;-inkscape-font-specification:'Elltaneixy, Normal';display:inline;fill:url(#linearGradient14);fill-opacity:1;stroke:none;stroke-width:0.1;stroke-linecap:round;stroke-linejoin:round;paint-order:stroke fill markers"
         d="m 51.980528,16.271366 c -0.564269,0 -1.548984,-0.0053 -2.150472,0.05673 -5.019369,0.517368 -9.036786,4.558774 -9.55073,9.580124 -0.06159,0.601775 -0.05467,1.584725 -0.05467,2.148414 v 7.185681 c 0,1.372886 1.111503,2.484389 2.484389,2.484389 h 17.538869 c 0.772051,0 1.400629,-0.628578 1.400629,-1.400629 V 35.89075 c 0,-0.772052 -0.628578,-1.400629 -1.400629,-1.400629 H 44.294853 c -0.200627,0 -0.346126,-0.07736 -0.429741,-0.179598 -0.08362,-0.102239 -0.119759,-0.227058 -0.06437,-0.408284 0.835576,-2.734359 3.220427,-4.796154 6.113384,-5.189234 1.333418,-0.209709 2.608726,-0.344015 2.608726,-1.62373 v -0.465014 c 0,-1.351728 -1.350773,-1.304409 -2.692793,-1.18664 -2.375282,0.246937 -4.543474,1.289089 -6.207152,2.837706 -0.05901,0.05492 -0.110156,0.09283 -0.148146,0.115225 -0.0081,-0.03894 -0.01587,-0.09477 -0.01587,-0.166077 v -0.16784 c 0,-0.586964 -0.0031,-1.539425 0.06849,-2.066405 0.449267,-3.308428 3.078322,-5.937485 6.386749,-6.386749 0.526229,-0.07146 1.478681,-0.06643 2.066405,-0.06643 h 8.267383 c 0.772051,0 1.400629,-0.628284 1.400629,-1.400335 v -0.46472 c 0,-0.772052 -0.628578,-1.400629 -1.400629,-1.400629 z m 14.855482,0 c -1.342366,0 -2.427952,1.087737 -2.427952,2.429716 v 16.414251 c 0,1.439836 1.169418,2.611372 2.609608,2.611372 h 16.001852 c 1.551676,0 2.812427,-1.261045 2.812427,-2.812721 V 18.800728 c 0,-1.398027 -1.131041,-2.529362 -2.529068,-2.529362 z m 33.42168,0 c -0.564957,0 -1.550723,-0.0017 -2.140482,0.03733 -7.707409,0.509688 -9.693432,6.4591 -9.792938,10.111275 -0.03414,1.252984 1.16422,2.226603 2.375043,2.226603 H 105.8261 c 0.20067,0 0.34568,0.07563 0.43357,0.181655 0.0879,0.106024 0.12936,0.241856 0.082,0.429448 -0.35751,1.417523 -0.97699,2.628821 -1.95118,3.527585 -0.9742,0.898764 -2.31105,1.499875 -4.16397,1.661943 -0.547697,0.0479 -1.498974,0.04292 -2.085807,0.04292 h -3.152811 c -0.772052,0 -1.398277,0.629341 -1.398277,1.400629 v 0.435326 c 0,0.771288 0.626225,1.400629 1.398277,1.400629 h 3.152811 c 0.573947,0 1.537252,0.0026 2.134597,-0.03322 7.93548,-0.475561 9.84211,-6.213945 9.74797,-10.445487 -0.0233,-1.048461 -0.98441,-1.867113 -2.00762,-1.867113 H 92.542911 c -0.200797,0 -0.346367,-0.07641 -0.433563,-0.181655 -0.0872,-0.10525 -0.12692,-0.2395 -0.07819,-0.425921 0.368724,-1.41034 1.021826,-2.62031 2.015847,-3.521412 0.994021,-0.901102 2.334486,-1.50349 4.126931,-1.669879 0.545022,-0.05059 1.496462,-0.04497 2.083754,-0.04497 h 8.23828 c 0.77206,0 1.40063,-0.628284 1.40063,-1.400335 v -0.46472 c 0,-0.772052 -0.62857,-1.400629 -1.40063,-1.400629 z M 68.216651,19.53705 h 13.845795 c 0.299779,0 0.535267,0.235487 0.535267,0.535267 v 13.642388 c 0,0.200027 -0.07821,0.362508 -0.197235,0.470893 -0.119027,0.108385 -0.27443,0.16534 -0.466778,0.13874 -7.377884,-1.020307 -13.216613,-6.915462 -14.150612,-14.32051 -0.01749,-0.138637 0.02369,-0.245035 0.09965,-0.328038 0.07596,-0.083 0.189248,-0.13874 0.333917,-0.13874 z m -0.574067,9.238271 c 1.488559,2.275078 3.437948,4.225837 5.712743,5.7148 h -4.995821 c -0.399955,0 -0.716922,-0.316672 -0.716922,-0.716628 z"
         transform="matrix(1.7580548,0,0,1.7580548,-27.07433,2.534265)"
         sodipodi:nodetypes="scssssssssssccsscscsscssssssssssssssssscsssscssssssssccssscsssssssssssssssssccssc" />
    </g>
  </g>
</svg>
