<?xml version="1.0" encoding="UTF-8" standalone="no"?>
<!-- Created with Inkscape (http://www.inkscape.org/) -->

<svg
   width="235mm"
   height="75mm"
   viewBox="0 0 235 75"
   version="1.1"
   id="svg1"
   sodipodi:docname="LOGO-TOP.svg"
   inkscape:version="1.4.2 (f4327f4, 2025-05-13)"
   xmlns:inkscape="http://www.inkscape.org/namespaces/inkscape"
   xmlns:sodipodi="http://sodipodi.sourceforge.net/DTD/sodipodi-0.dtd"
   xmlns:xlink="http://www.w3.org/1999/xlink"
   xmlns="http://www.w3.org/2000/svg"
   xmlns:svg="http://www.w3.org/2000/svg">
  <sodipodi:namedview
     id="namedview1"
     pagecolor="#ffffff"
     bordercolor="#000000"
     borderopacity="0.25"
     inkscape:showpageshadow="2"
     inkscape:pageopacity="0.0"
     inkscape:pagecheckerboard="0"
     inkscape:deskcolor="#d1d1d1"
     inkscape:document-units="mm"
     showgrid="false"
     inkscape:window-width="1920"
     inkscape:window-height="1171"
     inkscape:window-x="2391"
     inkscape:window-y="647"
     inkscape:window-maximized="1"
     inkscape:current-layer="g1"
     showguides="true" />
  <defs
     id="defs1">
    <linearGradient
       id="linearGradient56">
      <stop
         style="stop-color:#eabebb;stop-opacity:1;"
         offset="0"
         id="stop55" />
      <stop
         style="stop-color:#f4deba;stop-opacity:1;"
         offset="1"
         id="stop56" />
    </linearGradient>
    <linearGradient
       id="linearGradient48">
      <stop
         style="stop-color:#efd8c9;stop-opacity:1;"
         offset="0"
         id="stop47" />
      <stop
         style="stop-color:#a9ddd7;stop-opacity:1;"
         offset="1"
         id="stop48" />
    </linearGradient>
    <linearGradient
       id="linearGradient25">
      <stop
         style="stop-color:#dc938e;stop-opacity:1;"
         offset="0"
         id="stop24" />
      <stop
         style="stop-color:#eac07d;stop-opacity:1;"
         offset="1"
         id="stop25" />
    </linearGradient>
    <inkscape:path-effect
       effect="fillet_chamfer"
       id="path-effect20"
       is_visible="true"
       lpeversion="1"
       nodesatellites_param="F,0,0,1,0,0,0,1 @ F,0,0,1,0,0,0,1 @ F,0,0,1,0,0,0,1 @ F,0,0,1,0,0,0,1 @ F,0,0,1,0,0,0,1 @ F,0,0,1,0,0,0,1 @ F,0,0,1,0,0,0,1 @ F,0,0,1,0,0,0,1 | F,0,0,1,0,0,0,1 @ F,0,0,1,0,0,0,1 @ F,0,0,1,0,0,0,1 @ F,0,0,1,0,0,0,1 @ F,0,1,1,0,1.348189,0,1 @ F,0,1,1,0,1.348189,0,1 @ F,0,1,1,0,1.348189,0,1 @ F,0,0,1,0,0,0,1 @ F,0,0,1,0,0,0,1 @ F,0,0,1,0,0,0,1 @ F,0,0,1,0,1.6178268,0,1 @ F,0,0,1,0,2.6963781,0,1 @ F,0,0,1,0,0,0,1 @ F,0,0,1,0,0,0,1 @ F,0,0,1,0,0,0,1 @ F,0,0,1,0,0,0,1 @ F,0,0,1,0,0,0,1 | F,0,0,1,0,1.3229166,0,1 @ F,0,0,1,0,2.9660159,0,1 @ F,0,0,1,0,0,0,1 @ F,0,0,1,0,0,0,1 @ F,0,0,1,0,1.3229166,0,1"
       radius="6"
       unit="px"
       method="auto"
       mode="F"
       chamfer_steps="1"
       flexible="false"
       use_knot_distance="true"
       apply_no_radius="true"
       apply_with_radius="true"
       only_selected="true"
       hide_knots="false" />
    <linearGradient
       id="linearGradient20">
      <stop
         style="stop-color:#dcab8e;stop-opacity:0.71465969;"
         offset="0"
         id="stop19" />
      <stop
         style="stop-color:#7e66c3;stop-opacity:1;"
         offset="1"
         id="stop20" />
    </linearGradient>
    <inkscape:path-effect
       effect="fillet_chamfer"
       id="path-effect15"
       is_visible="true"
       lpeversion="1"
       nodesatellites_param="F,0,0,1,0,0,0,1 @ F,0,0,1,0,0,0,1 @ F,0,0,1,0,0,0,1 @ F,0,0,1,0,0,0,1 @ F,0,0,1,0,0,0,1 @ F,0,0,1,0,0,0,1 @ F,0,0,1,0,0,0,1 @ F,0,0,1,0,0,0,1 | F,0,0,1,0,0,0,1 @ F,0,0,1,0,2.6458333,0,1 @ F,0,0,1,0,0,0,1 @ F,0,0,1,0,0,0,1 @ F,0,0,1,0,1.3229166,0,1 @ F,0,0,1,0,1.3229166,0,1 @ F,0,0,1,0,1.3229166,0,1 @ F,0,0,1,0,0,0,1 @ F,0,0,1,0,2.1166666,0,1 @ F,0,0,1,0,0,0,1 @ F,0,0,1,0,0,0,1 @ F,0,0,1,0,0,0,1 @ F,0,0,1,0,0,0,1 @ F,0,1,1,0,0,0,1"
       radius="6"
       unit="px"
       method="auto"
       mode="F"
       chamfer_steps="1"
       flexible="false"
       use_knot_distance="true"
       apply_no_radius="true"
       apply_with_radius="true"
       only_selected="true"
       hide_knots="false" />
    <inkscape:path-effect
       effect="fillet_chamfer"
       id="path-effect13"
       is_visible="true"
       lpeversion="1"
       nodesatellites_param="F,0,0,1,0,0,0,1 @ F,0,0,1,0,0,0,1 @ F,0,0,1,0,0,0,1 @ F,0,0,1,0,0,0,1 @ F,0,0,1,0,0,0,1 @ F,0,0,1,0,0,0,1 @ F,0,0,1,0,0,0,1 @ F,0,0,1,0,0,0,1 | F,0,0,1,0,0,0,1 @ F,0,0,1,0,0,0,1 @ F,0,0,1,0,0,0,1 @ F,0,0,1,0,0,0,1 @ F,0,0,1,0,0,0,1 @ F,0,0,1,0,0,0,1 @ F,0,1,1,0,1.5875,0,1 @ F,0,0,1,0,6.6145832,0,1 @ F,0,0,1,0,5.5562499,0,1 @ F,0,0,1,0,0,0,1 @ F,0,0,1,0,2.6458333,0,1"
       radius="6"
       unit="px"
       method="auto"
       mode="F"
       chamfer_steps="1"
       flexible="false"
       use_knot_distance="true"
       apply_no_radius="true"
       apply_with_radius="true"
       only_selected="true"
       hide_knots="false" />
    <inkscape:path-effect
       effect="fillet_chamfer"
       id="path-effect12"
       is_visible="true"
       lpeversion="1"
       nodesatellites_param="F,0,1,1,0,2.1166666,0,1 @ F,0,1,1,0,2.1166666,0,1 @ F,0,0,1,0,0,0,1 @ F,0,0,1,0,0,0,1 @ F,0,1,1,0,2.1166666,0,1"
       radius="8"
       unit="px"
       method="auto"
       mode="F"
       chamfer_steps="1"
       flexible="false"
       use_knot_distance="true"
       apply_no_radius="true"
       apply_with_radius="true"
       only_selected="true"
       hide_knots="false" />
    <inkscape:path-effect
       effect="offset"
       id="path-effect11"
       is_visible="true"
       lpeversion="1.3"
       linejoin_type="miter"
       unit="mm"
       offset="-6.1"
       miter_limit="4"
       attempt_force_join="false"
       update_on_knot_move="true" />
    <inkscape:path-effect
       effect="fillet_chamfer"
       id="path-effect10"
       is_visible="true"
       lpeversion="1"
       nodesatellites_param="F,0,0,1,0,3.7041666,0,1 @ F,0,0,1,0,3.7041666,0,1 @ F,0,1,1,0,13.758333,0,1 @ F,0,0,1,0,3.7041666,0,1"
       radius="52"
       unit="px"
       method="auto"
       mode="F"
       chamfer_steps="1"
       flexible="false"
       use_knot_distance="true"
       apply_no_radius="true"
       apply_with_radius="true"
       only_selected="true"
       hide_knots="false" />
    <inkscape:path-effect
       effect="fillet_chamfer"
       id="path-effect5"
       is_visible="true"
       lpeversion="1"
       nodesatellites_param="F,0,0,1,0,3.7041666,0,1 @ F,0,0,1,0,3.7041666,0,1 @ F,0,1,1,0,13.758333,0,1 @ F,0,0,1,0,3.7041666,0,1"
       radius="52"
       unit="px"
       method="auto"
       mode="F"
       chamfer_steps="1"
       flexible="false"
       use_knot_distance="true"
       apply_no_radius="true"
       apply_with_radius="true"
       only_selected="true"
       hide_knots="false" />
    <inkscape:path-effect
       effect="fillet_chamfer"
       id="path-effect4"
       is_visible="true"
       lpeversion="1"
       nodesatellites_param="F,0,0,1,0,1.0583333,0,1 @ F,0,0,1,0,1.0583333,0,1 @ F,0,0,1,0,1.0583333,0,1 @ F,0,0,1,0,1.0583333,0,1 @ F,0,0,1,0,1.0583333,0,1 @ F,0,0,1,0,1.0583333,0,1 @ F,0,0,1,0,1.0583333,0,1 @ F,0,0,1,0,1.0583333,0,1 | F,0,0,1,0,1.0583333,0,1 @ F,0,0,1,0,1.0583333,0,1 @ F,0,0,1,0,1.0583333,0,1 @ F,0,0,1,0,1.0583333,0,1 @ F,0,0,1,0,1.0583333,0,1 @ F,0,0,1,0,1.0583333,0,1 @ F,0,0,1,0,1.0583333,0,1 @ F,0,0,1,0,1.0583333,0,1 @ F,0,0,1,0,1.0583333,0,1 @ F,0,0,1,0,1.0583333,0,1 @ F,0,0,1,0,1.0583333,0,1 @ F,0,0,1,0,1.0583333,0,1 @ F,0,0,1,0,1.0583333,0,1 @ F,0,0,1,0,1.0583333,0,1 @ F,0,0,1,0,1.0583333,0,1 @ F,0,0,1,0,1.0583333,0,1 @ F,0,0,1,0,1.0583333,0,1 @ F,0,0,1,0,1.0583333,0,1 @ F,0,0,1,0,1.0583333,0,1 @ F,0,0,1,0,1.0583333,0,1 @ F,0,0,1,0,1.0583333,0,1 @ F,0,0,1,0,1.0583333,0,1 @ F,0,1,1,0,2.6458333,0,1 @ F,0,1,1,0,2.6458333,0,1 @ F,0,0,1,0,1.0583333,0,1 @ F,0,0,1,0,1.0583333,0,1 @ F,0,0,1,0,1.0583333,0,1"
       radius="10"
       unit="px"
       method="auto"
       mode="F"
       chamfer_steps="1"
       flexible="false"
       use_knot_distance="true"
       apply_no_radius="true"
       apply_with_radius="true"
       only_selected="true"
       hide_knots="false" />
    <inkscape:path-effect
       effect="fillet_chamfer"
       id="path-effect3"
       is_visible="true"
       lpeversion="1"
       nodesatellites_param="F,0,0,1,0,0,0,1 @ F,0,0,1,0,0,0,1 @ F,0,0,1,0,0,0,1 @ F,0,0,1,0,0,0,1 @ F,0,0,1,0,0,0,1 @ F,0,0,1,0,0,0,1 @ F,0,0,1,0,0,0,1 @ F,0,0,1,0,0,0,1 | F,0,0,1,0,0,0,1 @ F,0,0,1,0,0,0,1 @ F,0,0,1,0,2.6458333,0,1 @ F,0,0,1,0,0,0,1 @ F,0,0,1,0,0,0,1 @ F,0,0,1,0,0,0,1 @ F,0,0,1,0,0,0,1 @ F,0,0,1,0,0,0,1 @ F,0,0,1,0,0,0,1 @ F,0,0,1,0,0,0,1 @ F,0,0,1,0,0,0,1 @ F,0,0,1,0,1.3703999,0,1 @ F,0,1,1,0,1.3703999,0,1 @ F,0,0,1,0,0,0,1 @ F,0,0,1,0,0,0,1 @ F,0,0,1,0,0,0,1 @ F,0,0,1,0,0,0,1 @ F,0,0,1,0,0,0,1 @ F,0,0,1,0,0,0,1 | F,0,0,1,0,0,0,1 @ F,0,0,1,0,0,0,1 @ F,0,0,1,0,0,0,1 @ F,0,0,1,0,0,0,1"
       radius="6"
       unit="px"
       method="auto"
       mode="F"
       chamfer_steps="1"
       flexible="false"
       use_knot_distance="true"
       apply_no_radius="true"
       apply_with_radius="true"
       only_selected="true"
       hide_knots="false" />
    <linearGradient
       id="linearGradient12">
      <stop
         style="stop-color:#dcab8e;stop-opacity:1;"
         offset="0"
         id="stop13" />
      <stop
         style="stop-color:#7e66c3;stop-opacity:1;"
         offset="1"
         id="stop14" />
    </linearGradient>
    <linearGradient
       xlink:href="#linearGradient25"
       id="linearGradient14"
       x1="40.174351"
       y1="26.998978"
       x2="110.07668"
       y2="26.998978"
       gradientUnits="userSpaceOnUse"
       gradientTransform="matrix(1.7580548,0,0,1.7580548,-27.07433,2.9169301)" />
    <linearGradient
       inkscape:collect="always"
       xlink:href="#linearGradient25"
       id="linearGradient1"
       gradientUnits="userSpaceOnUse"
       x1="40.174351"
       y1="26.998978"
       x2="110.07668"
       y2="26.998978" />
  </defs>
  <g
     id="layer1">
    <g
       id="g1"
       transform="matrix(1.8192417,0,0,1.8188772,-73.521094,-54.13987)">
      <path
         id="path29"
         style="font-size:29.6725px;font-family:Elltaneixy;-inkscape-font-specification:'Elltaneixy, Normal';display:inline;fill:url(#linearGradient1);fill-opacity:1;stroke:none;stroke-width:0.1;stroke-linecap:round;stroke-linejoin:round;paint-order:stroke fill markers"
         d="m 79.399635,21.399166 c -0.587848,-7.6e-5 -1.064414,0.519923 -1.06436,1.161361 9.4e-5,0.641324 0.476617,1.161143 1.06436,1.161067 0.587628,-1.01e-4 1.063972,-0.519869 1.064066,-1.161067 5.4e-5,-0.641313 -0.476333,-1.16126 -1.064066,-1.161361 z m -23.916507,3.703656 c -0.587628,1.01e-4 -1.063972,0.519869 -1.064066,1.161067 -5.4e-5,0.641313 0.476333,1.16126 1.064066,1.161361 0.587848,7.7e-5 1.064415,-0.519922 1.064361,-1.161361 -9.4e-5,-0.641324 -0.476618,-1.161144 -1.064361,-1.161067 z m 34.951345,9.80058 c -0.587733,1.01e-4 -1.064122,0.520047 -1.064067,1.161361 9.4e-5,0.641198 0.476439,1.160965 1.064067,1.161066 0.587742,7.6e-5 1.064265,-0.519743 1.06436,-1.161066 5.4e-5,-0.641439 -0.476513,-1.161438 -1.06436,-1.161361 z"
         transform="matrix(1.7580548,0,0,1.7580548,-27.07433,2.534265)" />
      <path
         id="path26"
         style="font-size:29.6725px;font-family:Elltaneixy;-inkscape-font-specification:'Elltaneixy, Normal';display:inline;fill:url(#linearGradient14);fill-opacity:1;stroke:none;stroke-width:0.175805;stroke-linecap:round;stroke-linejoin:round;paint-order:stroke fill markers"
         d="m 64.310287,31.522883 c -0.992016,0 -2.723199,-0.0093 -3.780648,0.09973 -8.824326,0.909561 -15.887165,8.014574 -16.790707,16.842383 -0.108278,1.057953 -0.09611,2.786033 -0.09611,3.777029 v 12.632821 c 0,2.413609 1.954084,4.367692 4.367692,4.367692 h 30.834293 c 1.357308,0 2.462383,-1.105075 2.462383,-2.462382 v -0.765321 c 0,-1.357309 -1.105075,-2.462382 -2.462383,-2.462382 H 50.798449 c -0.352713,0 -0.608509,-0.136003 -0.755508,-0.315743 -0.147009,-0.179742 -0.210543,-0.399181 -0.113166,-0.717786 1.468988,-4.807153 5.661687,-8.431902 10.747664,-9.122958 2.344222,-0.36868 4.586283,-0.604797 4.586283,-2.854606 v -0.81752 c 0,-2.376412 -2.374733,-2.293223 -4.734078,-2.086178 -4.175876,0.434128 -7.987676,2.266289 -10.912513,4.988842 -0.103743,0.09655 -0.19366,0.163201 -0.260449,0.202572 -0.01424,-0.06846 -0.0279,-0.166611 -0.0279,-0.291972 v -0.295072 c 0,-1.031915 -0.0054,-2.706394 0.120409,-3.632853 0.789836,-5.816398 5.411859,-10.438424 11.228255,-11.228255 0.925139,-0.125631 2.599602,-0.116788 3.632853,-0.116788 h 14.534512 c 1.357308,0 2.462383,-1.104557 2.462383,-2.461865 v -0.817004 c 0,-1.357309 -1.105075,-2.462382 -2.462383,-2.462382 z m 26.116751,0 c -2.359953,0 -4.268473,1.912301 -4.268473,4.271574 V 64.65161 c 0,2.53131 2.055901,4.590935 4.587834,4.590935 h 28.132131 c 2.72793,0 4.9444,-2.216986 4.9444,-4.944918 V 35.96964 c 0,-2.457808 -1.98843,-4.446757 -4.44624,-4.446757 z m 58.757142,0 c -0.99322,0 -2.72625,-0.003 -3.76308,0.06563 -13.55005,0.89606 -17.04159,11.355452 -17.21652,17.776176 -0.06,2.202814 2.04676,3.91449 4.17545,3.91449 h 26.59372 c 0.35279,0 0.60773,0.132962 0.76224,0.319359 0.15454,0.186396 0.22742,0.425196 0.14416,0.754993 -0.62852,2.492084 -1.7176,4.621612 -3.43028,6.201688 -1.7127,1.580077 -4.06295,2.636863 -7.32049,2.921787 -0.96288,0.08421 -2.63527,0.07546 -3.66696,0.07546 h -5.54281 c -1.35731,0 -2.45825,1.106416 -2.45825,2.462382 v 0.765327 c 0,1.355967 1.10094,2.462383 2.45825,2.462383 h 5.54281 c 1.00903,0 2.70257,0.0046 3.75274,-0.0584 13.95101,-0.836062 17.30297,-10.924456 17.13747,-18.363738 -0.041,-1.843252 -1.73065,-3.282487 -3.52951,-3.282487 h -27.20194 c -0.35301,0 -0.60893,-0.134333 -0.76223,-0.31936 -0.1533,-0.185035 -0.22313,-0.421054 -0.13746,-0.748792 0.64824,-2.479455 1.79643,-4.606649 3.54397,-6.190835 1.74754,-1.584187 4.10415,-2.643218 7.25537,-2.935739 0.95818,-0.08894 2.63086,-0.07906 3.66335,-0.07906 h 14.48335 c 1.35732,0 2.46238,-1.104558 2.46238,-2.461866 v -0.817003 c 0,-1.35731 -1.10506,-2.462382 -2.46238,-2.462382 z m -56.329899,5.741252 h 24.341669 c 0.52702,0 0.94103,0.413999 0.94103,0.941028 v 23.984066 c 0,0.351658 -0.1375,0.637309 -0.34675,0.827856 -0.20926,0.190546 -0.48247,0.290676 -0.82063,0.243912 -12.97072,-1.793755 -23.235525,-12.157761 -24.877547,-25.176241 -0.03075,-0.243732 0.04165,-0.430785 0.17519,-0.576709 0.133542,-0.145918 0.332709,-0.243912 0.587045,-0.243912 z m -1.009242,16.241386 c 2.616969,3.999712 6.044101,7.429253 10.043311,10.046932 h -8.782922 c -0.703143,0 -1.260389,-0.556727 -1.260389,-1.259872 z"
         sodipodi:nodetypes="scssssssssssccsscscsscssssssssssssssssscsssscssssssssccssscsssssssssssssssssccssc" />
    </g>
  </g>
</svg>
