<svg width="594" height="786" viewBox="0 0 594 786" fill="none" xmlns="http://www.w3.org/2000/svg">
<g clip-path="url(#clip0_37_176)">
<g filter="url(#filter0_f_37_176)">
<ellipse cx="78.9186" cy="78.8542" rx="78.9186" ry="78.8542" transform="matrix(0.444866 -0.893672 0.898296 0.4433 116.35 664.203)" fill="#FF9E55"/>
<ellipse cx="224.719" cy="346.077" rx="61.5145" ry="61.5145" transform="matrix(0.444085 -0.892901 0.899079 0.444085 -186.226 393.041)" fill="#FF9E55"/>
<circle cx="435.23" cy="135.214" r="47.1741" transform="matrix(0.864239 -0.50339 0.502774 0.864239 -8.89478 237.447)" fill="#FF9E55"/>
</g>
<ellipse cx="78.9186" cy="78.8542" rx="78.9186" ry="78.8542" transform="matrix(0.444866 -0.893672 0.898296 0.4433 116.349 664.202)" fill="url(#paint0_linear_37_176)"/>
<ellipse cx="224.72" cy="346.076" rx="61.5145" ry="61.5145" transform="matrix(0.444085 -0.892901 0.899079 0.444085 -186.225 393.042)" fill="url(#paint1_linear_37_176)"/>
<circle cx="435.229" cy="135.214" r="47.1741" transform="matrix(0.864239 -0.50339 0.502774 0.864239 -8.89479 237.447)" fill="url(#paint2_linear_37_176)"/>
</g>
<defs>
<filter id="filter0_f_37_176" x="63.2168" y="8.03223" width="499.194" height="779.332" filterUnits="userSpaceOnUse" color-interpolation-filters="sRGB">
<feFlood flood-opacity="0" result="BackgroundImageFix"/>
<feBlend mode="normal" in="SourceGraphic" in2="BackgroundImageFix" result="shape"/>
<feGaussianBlur stdDeviation="40" result="effect1_foregroundBlur_37_176"/>
</filter>
<linearGradient id="paint0_linear_37_176" x1="78.9186" y1="0" x2="78.9186" y2="157.708" gradientUnits="userSpaceOnUse">
<stop stop-color="#FFD899"/>
<stop offset="1" stop-color="#FFE2C1"/>
</linearGradient>
<linearGradient id="paint1_linear_37_176" x1="224.438" y1="285.051" x2="224.438" y2="408.08" gradientUnits="userSpaceOnUse">
<stop stop-color="#FFD899"/>
<stop offset="1" stop-color="#FFE2C1"/>
</linearGradient>
<linearGradient id="paint2_linear_37_176" x1="435.344" y1="88.012" x2="435.344" y2="182.36" gradientUnits="userSpaceOnUse">
<stop stop-color="#FFD899"/>
<stop offset="1" stop-color="#FFE2C1"/>
</linearGradient>
<clipPath id="clip0_37_176">
<rect width="594" height="786" fill="white"/>
</clipPath>
</defs>
</svg>
