<svg width="269" height="42" viewBox="0 0 269 42" fill="none" xmlns="http://www.w3.org/2000/svg">
<path d="M29.7001 41.94H2.22012C0.900117 41.94 0.000117182 40.92 0.240117 39.66L1.38012 33.3C1.62012 32.04 2.88012 30.96 4.20012 30.96H30.5401C31.3201 30.96 32.1001 30.36 32.2201 29.58L32.5801 27.6C32.7001 26.82 32.1601 26.16 31.3801 26.16H12.4801C6.30012 26.16 2.22012 21.3 3.30012 15.24L4.08012 10.98C5.16012 4.92 11.0401 -1.19209e-06 17.1601 -1.19209e-06H45.1801C46.5001 -1.19209e-06 47.4001 1.02 47.1601 2.34L46.0801 8.34C45.8401 9.66 44.5801 10.68 43.2601 10.68H17.6401C16.8601 10.68 16.0801 11.34 15.9601 12.12L15.4801 14.76C15.3601 15.54 15.8401 16.14 16.6201 16.14H35.5801C41.7601 16.14 45.8401 21.06 44.7601 27.12L44.0401 31.02C42.9601 37.08 37.0801 42 30.9601 42H29.7001V41.94ZM92.754 3.36C94.194 3.36 95.154 4.5 94.914 5.88L90.174 31.8C89.214 37.44 83.754 42 78.054 42C78.054 42 78.054 42 77.994 42L76.974 41.94L76.914 42L58.374 41.94C52.554 41.88 48.774 37.26 49.794 31.62L54.474 5.76C54.714 4.44 56.034 3.36 57.354 3.36H64.134C65.574 3.36 66.474 4.5 66.234 5.88L61.794 30.42C61.794 30.66 61.794 30.9 61.914 31.02C62.094 31.2 62.274 31.26 62.514 31.26H77.394C77.934 31.26 78.474 30.84 78.534 30.3L82.974 5.76C83.214 4.38 84.474 3.36 85.854 3.36H92.754ZM148.16 3.48C149.6 3.48 150.56 4.62 150.32 6L144.26 39.6C143.96 40.92 142.7 42 141.38 42H134.9C134.24 42 133.64 41.7 133.22 41.22C132.86 40.74 132.68 40.08 132.8 39.42L134.9 27.72L126.32 40.56C125.78 41.4 124.82 41.94 123.86 41.94H115.34C114.32 41.94 113.54 41.4 113.24 40.5L109.28 27.66L107.18 39.6C106.88 40.92 105.62 41.94 104.3 41.94H97.8203C96.4403 41.94 95.4803 40.8 95.7203 39.42L101.78 5.88C102.02 4.5 103.28 3.48 104.66 3.48H112.94C113.9 3.48 114.74 4.08 114.98 4.98L121.46 28.32C121.46 28.44 121.58 28.44 121.58 28.44C121.64 28.44 121.7 28.44 121.76 28.38L137.48 4.86C138.02 4.02 138.98 3.48 139.94 3.48H148.16ZM203.838 3.48C205.278 3.48 206.238 4.62 205.998 6L199.938 39.6C199.638 40.92 198.378 42 197.058 42H190.578C189.918 42 189.318 41.7 188.898 41.22C188.538 40.74 188.358 40.08 188.478 39.42L190.578 27.72L181.998 40.56C181.458 41.4 180.498 41.94 179.538 41.94H171.018C169.998 41.94 169.218 41.4 168.918 40.5L164.958 27.66L162.858 39.6C162.558 40.92 161.298 41.94 159.978 41.94H153.498C152.118 41.94 151.158 40.8 151.398 39.42L157.458 5.88C157.698 4.5 158.958 3.48 160.338 3.48H168.618C169.578 3.48 170.418 4.08 170.658 4.98L177.138 28.32C177.138 28.44 177.258 28.44 177.258 28.44C177.318 28.44 177.378 28.44 177.438 28.38L193.158 4.86C193.698 4.02 194.658 3.48 195.618 3.48H203.838ZM223.157 3.42C224.597 3.42 225.497 4.62 225.257 6L219.197 39.6C218.957 40.92 217.697 41.94 216.317 41.94H209.177C208.517 41.94 207.917 41.7 207.497 41.22C207.137 40.74 206.957 40.08 207.077 39.42L213.137 5.82C213.377 4.5 214.637 3.42 216.017 3.42H223.157ZM265.728 3.42C267.108 3.42 268.068 4.56 267.828 6L266.868 11.4C266.628 12.78 265.368 13.8 263.988 13.8H253.548C253.488 13.8 253.428 13.86 253.428 13.92L248.808 39.6C248.508 40.92 247.248 41.94 245.928 41.94H238.788C238.068 41.94 237.468 41.7 237.108 41.22C236.688 40.74 236.568 40.08 236.688 39.42L241.308 13.8H230.868C230.208 13.8 229.608 13.56 229.188 13.08C228.768 12.6 228.648 11.94 228.768 11.28L229.728 5.82C229.968 4.5 231.228 3.42 232.608 3.42H265.728Z" fill="url(#paint0_radial_210_116)"/>
<defs>
<radialGradient id="paint0_radial_210_116" cx="0" cy="0" r="1" gradientUnits="userSpaceOnUse" gradientTransform="translate(132.782 24.94) rotate(-180) scale(183.589 41.5227)">
<stop offset="0.197115" stop-color="#FF9A9A"/>
<stop offset="0.966346" stop-color="#FFC58D"/>
</radialGradient>
</defs>
</svg>
